<?xml version="1.0" encoding="UTF-8" standalone="no"?>
<svg
   xmlns:dc="http://purl.org/dc/elements/1.1/"
   xmlns:cc="http://creativecommons.org/ns#"
   xmlns:rdf="http://www.w3.org/1999/02/22-rdf-syntax-ns#"
   xmlns:svg="http://www.w3.org/2000/svg"
   xmlns="http://www.w3.org/2000/svg"
   xmlns:sodipodi="http://sodipodi.sourceforge.net/DTD/sodipodi-0.dtd"
   xmlns:inkscape="http://www.inkscape.org/namespaces/inkscape"
   aria-hidden="true"
   focusable="false"
   data-prefix="fas"
   data-icon="envelope"
   class="svg-inline--fa fa-envelope fa-w-16"
   role="img"
   viewBox="0 0 512 512"
   version="1.1"
   id="svg4"
   sodipodi:docname="envelope-solid.svg"
   inkscape:version="1.0.1 (3bc2e813f5, 2020-09-07)">
  <metadata
     id="metadata10">
    <rdf:RDF>
      <cc:Work
         rdf:about="">
        <dc:format>image/svg+xml</dc:format>
        <dc:type
           rdf:resource="http://purl.org/dc/dcmitype/StillImage" />
      </cc:Work>
    </rdf:RDF>
  </metadata>
  <defs
     id="defs8" />
  <sodipodi:namedview
     pagecolor="#ffffff"
     bordercolor="#666666"
     borderopacity="1"
     objecttolerance="10"
     gridtolerance="10"
     guidetolerance="10"
     inkscape:pageopacity="0"
     inkscape:pageshadow="2"
     inkscape:window-width="1920"
     inkscape:window-height="1051"
     id="namedview6"
     showgrid="false"
     inkscape:zoom="1.71875"
     inkscape:cx="256"
     inkscape:cy="254.83636"
     inkscape:window-x="-9"
     inkscape:window-y="-9"
     inkscape:window-maximized="1"
     inkscape:current-layer="svg4" />
  <path
     fill="currentColor"
     d="M502.3 190.8c3.9-3.1 9.7-.2 9.7 4.7V400c0 26.5-21.5 48-48 48H48c-26.5 0-48-21.5-48-48V195.6c0-5 5.7-7.8 9.7-4.7 22.4 17.4 52.1 39.5 154.1 113.6 21.1 15.4 56.7 47.8 92.2 47.6 35.7.3 72-32.8 92.3-47.6 102-74.1 131.6-96.3 154-113.7zM256 320c23.2.4 56.6-29.2 73.4-41.4 132.7-96.3 142.8-104.7 173.4-128.7 5.8-4.5 9.2-11.5 9.2-18.9v-19c0-26.5-21.5-48-48-48H48C21.5 64 0 85.5 0 112v19c0 7.4 3.4 14.3 9.2 18.9 30.6 23.9 40.7 32.4 173.4 128.7 16.8 12.2 50.2 41.8 73.4 41.4z"
     id="path2" />
  <path
     style="fill:#08a793;stroke-width:0.581818"
     d="m 252.21818,319.38159 c -12.99253,-1.33659 -27.16707,-9.15415 -55.85454,-30.80497 -8.32,-6.27922 -28.74182,-21.32473 -45.38182,-33.43449 C 80.511738,203.85757 44.591064,177.1735 20.006147,157.84542 5.8687686,146.73094 4.1973146,144.97448 1.6293674,138.53398 0.40858147,135.47221 0.32853585,134.40081 0.32073949,121.01818 0.31388026,109.24412 0.49833455,105.95368 1.3807398,102.10909 5.6537786,83.491692 19.444399,69.69703 38.109091,65.369977 42.597054,64.329528 50.395216,64.290909 256,64.290909 c 205.60478,0 213.40294,0.03862 217.89091,1.079068 18.66586,4.327323 32.46984,18.136745 36.72465,36.739113 1.59608,6.97817 1.58868,31.14723 -0.0109,35.78182 -1.55661,4.50995 -4.34961,8.65822 -7.67806,11.40375 -18.45323,15.22145 -66.39855,50.98241 -145.10839,108.23193 -15.84,11.52121 -35.90836,26.29822 -44.59634,32.8378 -17.31373,13.03231 -24.40477,17.70375 -34.53093,22.74828 -10.30484,5.13356 -18.5438,7.0846 -26.47273,6.26892 z"
     id="path835" />
  <path
     style="fill:#08a793;stroke-width:0.581818"
     d="M 43.636364,447.4132 C 23.186019,445.38232 7.0641199,431.44431 1.5808286,411.05455 L 0.3291111,406.4 0.14647284,301.51114 C 0.01894743,228.2735 0.15175395,195.92441 0.58658001,194.30959 0.95998895,192.92285 1.81277,191.6015 2.7164947,191.00935 c 3.3827187,-2.21644 3.7938721,-1.98529 25.2107783,14.17365 22.986799,17.34342 44.690531,33.32486 97.745457,71.97442 20.64,15.03587 43.81091,32.1001 51.49091,37.92053 31.15046,23.60794 48.18918,32.76035 67.78181,36.40926 9.90005,1.84377 24.49147,0.39226 35.65053,-3.54639 15.61836,-5.5126 28.57159,-13.35334 54.8222,-33.18451 8.32,-6.28539 29.26546,-21.72855 46.54546,-34.31813 57.73316,-42.0623 93.83169,-68.76119 115.52528,-85.44388 3.37891,-2.59843 6.91345,-4.86894 7.85454,-5.04557 2.58426,-0.48505 5.28518,1.4464 6.06323,4.33588 0.44382,1.64822 0.57321,33.2727 0.43872,107.22653 -0.18029,99.13011 -0.24876,105.1088 -1.24716,108.8948 -2.60382,9.87386 -6.99441,17.46637 -13.88609,24.01279 -6.45553,6.13213 -12.98227,9.67942 -22.53034,12.24528 -3.56352,0.95762 -15.97283,1.02108 -214.98182,1.09941 -116.16,0.0457 -213.163636,-0.11189 -215.563636,-0.35022 z"
     id="path837" />
</svg>
