<?xml version="1.0" encoding="UTF-8" standalone="no"?>
<svg
   xmlns:dc="http://purl.org/dc/elements/1.1/"
   xmlns:cc="http://creativecommons.org/ns#"
   xmlns:rdf="http://www.w3.org/1999/02/22-rdf-syntax-ns#"
   xmlns:svg="http://www.w3.org/2000/svg"
   xmlns="http://www.w3.org/2000/svg"
   xmlns:sodipodi="http://sodipodi.sourceforge.net/DTD/sodipodi-0.dtd"
   xmlns:inkscape="http://www.inkscape.org/namespaces/inkscape"
   aria-hidden="true"
   focusable="false"
   data-prefix="fas"
   data-icon="phone-square-alt"
   class="svg-inline--fa fa-phone-square-alt fa-w-14"
   role="img"
   viewBox="0 0 448 512"
   version="1.1"
   id="svg4"
   sodipodi:docname="phone-icon.svg"
   inkscape:version="1.0.1 (3bc2e813f5, 2020-09-07)">
  <metadata
     id="metadata10">
    <rdf:RDF>
      <cc:Work
         rdf:about="">
        <dc:format>image/svg+xml</dc:format>
        <dc:type
           rdf:resource="http://purl.org/dc/dcmitype/StillImage" />
      </cc:Work>
    </rdf:RDF>
  </metadata>
  <defs
     id="defs8" />
  <sodipodi:namedview
     pagecolor="#ffffff"
     bordercolor="#666666"
     borderopacity="1"
     objecttolerance="10"
     gridtolerance="10"
     guidetolerance="10"
     inkscape:pageopacity="0"
     inkscape:pageshadow="2"
     inkscape:window-width="1920"
     inkscape:window-height="1051"
     id="namedview6"
     showgrid="false"
     inkscape:zoom="1.71875"
     inkscape:cx="224"
     inkscape:cy="254.83636"
     inkscape:window-x="-9"
     inkscape:window-y="-9"
     inkscape:window-maximized="1"
     inkscape:current-layer="svg4" />
  <path
     fill="currentColor"
     d="M400 32H48A48 48 0 0 0 0 80v352a48 48 0 0 0 48 48h352a48 48 0 0 0 48-48V80a48 48 0 0 0-48-48zm-16.39 307.37l-15 65A15 15 0 0 1 354 416C194 416 64 286.29 64 126a15.7 15.7 0 0 1 11.63-14.61l65-15A18.23 18.23 0 0 1 144 96a16.27 16.27 0 0 1 13.79 9.09l30 70A17.9 17.9 0 0 1 189 181a17 17 0 0 1-5.5 11.61l-37.89 31a231.91 231.91 0 0 0 110.78 110.78l31-37.89A17 17 0 0 1 299 291a17.85 17.85 0 0 1 5.91 1.21l70 30A16.25 16.25 0 0 1 384 336a17.41 17.41 0 0 1-.39 3.37z"
     id="path2" />
  <path
     style="fill:#08a793;stroke-width:0.581818"
     d="M 43.636364,479.41009 C 31.915388,478.23352 21.96255,473.41719 13.817352,464.98022 7.4151302,458.34867 3.5030657,451.09196 1.3699767,441.89091 0.33136966,437.41089 0.29090909,430.44075 0.29090909,256 0.29090909,81.559247 0.33136966,74.58911 1.3699767,70.109091 5.6962705,51.447673 19.447673,37.696271 38.109091,33.369977 42.58911,32.33137 49.559247,32.290909 224,32.290909 c 174.44075,0 181.41089,0.04046 185.89091,1.079068 18.66142,4.326294 32.41282,18.077696 36.73911,36.739114 1.03861,4.480019 1.07907,11.450156 1.07907,185.890909 0,174.44075 -0.0404,181.41089 -1.07907,185.89091 -4.22883,18.24101 -17.20202,31.56447 -35.57547,36.53598 l -4.65455,1.25943 -179.2,0.0809 c -98.56,0.0445 -181.163636,-0.11621 -183.563636,-0.35713 z M 360.43636,414.91141 c 3.43624,-1.56957 7.04372,-5.79172 8.10403,-9.48485 0.4894,-1.70461 4.16803,-17.32351 8.17472,-34.70868 C 381.51125,349.90725 384,337.97054 384,335.77757 c 0,-4.18576 -2.0546,-8.55548 -5.3483,-11.37477 -1.70687,-1.46102 -12.08003,-6.18298 -38.4941,-17.52287 -32.55085,-13.97449 -36.54965,-15.55308 -40.08787,-15.82527 -3.56795,-0.27448 -4.27793,-0.1312 -7.70133,1.55413 -3.66301,1.80329 -4.2327,2.4212 -19.88553,21.56889 l -16.11447,19.7124 -2.07511,-0.86403 C 249.90641,331.19946 234.98846,322.58514 227.2,317.38111 201.19478,300.00515 179.65227,278.47229 162.58996,252.8 c -5.19461,-7.81591 -13.81682,-22.77211 -15.60761,-27.07318 l -0.85563,-2.05501 19.69106,-16.10828 c 19.16329,-15.67655 19.74117,-16.21007 21.56049,-19.90563 1.69924,-3.45166 1.8419,-4.15514 1.56707,-7.72763 -0.27219,-3.53822 -1.85078,-7.53702 -15.82527,-40.08787 C 161.78018,113.42833 157.05822,103.05517 155.5972,101.3483 152.77791,98.054598 148.40819,96 144.22243,96 c -2.19297,0 -14.12968,2.488751 -34.94031,7.28489 -17.385166,4.00669 -32.941308,7.66707 -34.569201,8.13417 -3.964776,1.13764 -7.854307,4.62456 -9.547258,8.55902 -1.286912,2.99082 -1.31449,3.449 -0.990656,16.45828 1.319127,52.99293 18.112756,105.37813 48.308435,150.69091 19.56302,29.35702 46.00916,56.37943 75.15292,76.79055 40.68313,28.49282 89.08256,46.39079 137.6,50.88409 3.68,0.34082 7.60728,0.70791 8.72728,0.81577 1.12,0.10785 7.01091,0.23225 13.09091,0.27643 9.58016,0.0696 11.36494,-0.0615 13.38181,-0.9827 z"
     id="path835" />
</svg>
